<mxfile host="app.diagrams.net" agent="Mozilla/5.0 (Windows NT 10.0; Win64; x64) AppleWebKit/537.36 (KHTML, like Gecko) Chrome/140.0.0.0 Safari/537.36" version="28.2.0">
  <diagram name="P치gina-1" id="fpzE4_NS28Rr-2KfHzUo">
    <mxGraphModel dx="2323" dy="1923" grid="1" gridSize="12" guides="1" tooltips="1" connect="1" arrows="1" fold="1" page="1" pageScale="1" pageWidth="827" pageHeight="1169" math="0" shadow="0">
      <root>
        <mxCell id="0" />
        <mxCell id="1" parent="0" />
        <mxCell id="T5yh9XAndWMEfEpCIEIo-2" value="ESTUDIANTE" style="shape=umlActor;verticalLabelPosition=bottom;verticalAlign=top;html=1;outlineConnect=0;fillColor=#FFFFCC;" vertex="1" parent="1">
          <mxGeometry x="770" y="-100" width="230" height="230" as="geometry" />
        </mxCell>
        <mxCell id="T5yh9XAndWMEfEpCIEIo-3" value="DOCENTE" style="shape=umlActor;verticalLabelPosition=bottom;verticalAlign=top;html=1;outlineConnect=0;fillColor=#CCFFCC;" vertex="1" parent="1">
          <mxGeometry x="-360" y="-170" width="230" height="240" as="geometry" />
        </mxCell>
        <mxCell id="T5yh9XAndWMEfEpCIEIo-4" value="ADMINISTRADOR" style="shape=umlActor;verticalLabelPosition=bottom;verticalAlign=top;html=1;outlineConnect=0;fillColor=#CCFFE6;" vertex="1" parent="1">
          <mxGeometry x="490" y="1270" width="140" height="190" as="geometry" />
        </mxCell>
        <mxCell id="T5yh9XAndWMEfEpCIEIo-5" value="D2&lt;div&gt;&lt;br&gt;&lt;/div&gt;&lt;div&gt;Prestamos Activos&lt;/div&gt;&lt;div&gt;&lt;br&gt;&lt;/div&gt;" style="strokeWidth=2;html=1;shape=mxgraph.flowchart.database;whiteSpace=wrap;" vertex="1" parent="1">
          <mxGeometry x="50" y="1420" width="120" height="70" as="geometry" />
        </mxCell>
        <mxCell id="T5yh9XAndWMEfEpCIEIo-49" style="edgeStyle=orthogonalEdgeStyle;rounded=0;orthogonalLoop=1;jettySize=auto;html=1;exitX=1;exitY=0.75;exitDx=0;exitDy=0;curved=1;strokeColor=#009900;strokeWidth=4;" edge="1" parent="1" source="T5yh9XAndWMEfEpCIEIo-6">
          <mxGeometry relative="1" as="geometry">
            <mxPoint x="580" y="1260" as="targetPoint" />
            <Array as="points">
              <mxPoint x="581" y="388" />
              <mxPoint x="581" y="1260" />
            </Array>
          </mxGeometry>
        </mxCell>
        <mxCell id="T5yh9XAndWMEfEpCIEIo-50" value="Confirmacion de Registro" style="edgeLabel;html=1;align=center;verticalAlign=middle;resizable=0;points=[];fontSize=14;" vertex="1" connectable="0" parent="T5yh9XAndWMEfEpCIEIo-49">
          <mxGeometry x="0.0929" y="-2" relative="1" as="geometry">
            <mxPoint x="-18" y="211" as="offset" />
          </mxGeometry>
        </mxCell>
        <mxCell id="T5yh9XAndWMEfEpCIEIo-6" value="&lt;div&gt;&lt;font style=&quot;vertical-align: inherit;&quot; dir=&quot;auto&quot;&gt;&lt;font style=&quot;vertical-align: inherit;&quot; dir=&quot;auto&quot;&gt;&lt;font style=&quot;vertical-align: inherit;&quot; dir=&quot;auto&quot;&gt;&lt;font style=&quot;vertical-align: inherit;&quot; dir=&quot;auto&quot;&gt;P1&lt;/font&gt;&lt;/font&gt;&lt;/font&gt;&lt;/font&gt;&lt;/div&gt;&lt;div&gt;&lt;font style=&quot;vertical-align: inherit;&quot; dir=&quot;auto&quot;&gt;&lt;font style=&quot;vertical-align: inherit;&quot; dir=&quot;auto&quot;&gt;&lt;font style=&quot;vertical-align: inherit;&quot; dir=&quot;auto&quot;&gt;&lt;font style=&quot;vertical-align: inherit;&quot; dir=&quot;auto&quot;&gt;&lt;br&gt;&lt;/font&gt;&lt;/font&gt;&lt;/font&gt;&lt;/font&gt;&lt;/div&gt;&lt;div&gt;&lt;font style=&quot;vertical-align: inherit;&quot; dir=&quot;auto&quot;&gt;&lt;font style=&quot;vertical-align: inherit;&quot; dir=&quot;auto&quot;&gt;&lt;font style=&quot;vertical-align: inherit;&quot; dir=&quot;auto&quot;&gt;&lt;font style=&quot;vertical-align: inherit;&quot; dir=&quot;auto&quot;&gt;&lt;font style=&quot;vertical-align: inherit;&quot; dir=&quot;auto&quot;&gt;&lt;font style=&quot;vertical-align: inherit;&quot; dir=&quot;auto&quot;&gt;Gesti칩n de Cat치logo&lt;/font&gt;&lt;/font&gt;&lt;/font&gt;&lt;/font&gt;&lt;/font&gt;&lt;/font&gt;&lt;/div&gt;" style="rounded=1;whiteSpace=wrap;html=1;absoluteArcSize=1;arcSize=14;strokeWidth=2;fillColor=#FF0000;" vertex="1" parent="1">
          <mxGeometry x="120" y="290" width="120" height="130" as="geometry" />
        </mxCell>
        <mxCell id="T5yh9XAndWMEfEpCIEIo-13" value="&lt;div&gt;&lt;font style=&quot;vertical-align: inherit;&quot; dir=&quot;auto&quot;&gt;&lt;font style=&quot;vertical-align: inherit;&quot; dir=&quot;auto&quot;&gt;&lt;font style=&quot;vertical-align: inherit;&quot; dir=&quot;auto&quot;&gt;&lt;font style=&quot;vertical-align: inherit;&quot; dir=&quot;auto&quot;&gt;&lt;font style=&quot;vertical-align: inherit;&quot; dir=&quot;auto&quot;&gt;&lt;font style=&quot;vertical-align: inherit;&quot; dir=&quot;auto&quot;&gt;P4&lt;/font&gt;&lt;/font&gt;&lt;/font&gt;&lt;/font&gt;&lt;/font&gt;&lt;/font&gt;&lt;/div&gt;&lt;div&gt;&lt;font style=&quot;vertical-align: inherit;&quot; dir=&quot;auto&quot;&gt;&lt;font style=&quot;vertical-align: inherit;&quot; dir=&quot;auto&quot;&gt;&lt;font style=&quot;vertical-align: inherit;&quot; dir=&quot;auto&quot;&gt;&lt;font style=&quot;vertical-align: inherit;&quot; dir=&quot;auto&quot;&gt;&lt;br&gt;&lt;/font&gt;&lt;/font&gt;&lt;/font&gt;&lt;/font&gt;&lt;/div&gt;&lt;div&gt;&lt;font style=&quot;vertical-align: inherit;&quot; dir=&quot;auto&quot;&gt;&lt;font style=&quot;vertical-align: inherit;&quot; dir=&quot;auto&quot;&gt;&lt;font style=&quot;vertical-align: inherit;&quot; dir=&quot;auto&quot;&gt;&lt;font style=&quot;vertical-align: inherit;&quot; dir=&quot;auto&quot;&gt;&lt;font style=&quot;vertical-align: inherit;&quot; dir=&quot;auto&quot;&gt;&lt;font style=&quot;vertical-align: inherit;&quot; dir=&quot;auto&quot;&gt;&lt;font style=&quot;vertical-align: inherit;&quot; dir=&quot;auto&quot;&gt;&lt;font style=&quot;vertical-align: inherit;&quot; dir=&quot;auto&quot;&gt;Gesti칩n de Bibliografia para Cursos&lt;/font&gt;&lt;/font&gt;&lt;/font&gt;&lt;/font&gt;&lt;/font&gt;&lt;/font&gt;&lt;/font&gt;&lt;/font&gt;&lt;/div&gt;" style="rounded=1;whiteSpace=wrap;html=1;absoluteArcSize=1;arcSize=14;strokeWidth=2;fillColor=#00CC00;" vertex="1" parent="1">
          <mxGeometry x="-400" y="840" width="120" height="130" as="geometry" />
        </mxCell>
        <mxCell id="T5yh9XAndWMEfEpCIEIo-18" value="" style="endArrow=classic;html=1;rounded=0;entryX=0.5;entryY=0;entryDx=0;entryDy=0;strokeWidth=4;strokeColor=#FFFF00;exitX=0.25;exitY=0.1;exitDx=0;exitDy=0;exitPerimeter=0;edgeStyle=orthogonalEdgeStyle;curved=1;" edge="1" parent="1" source="T5yh9XAndWMEfEpCIEIo-2" target="T5yh9XAndWMEfEpCIEIo-6">
          <mxGeometry relative="1" as="geometry">
            <mxPoint x="370" y="120" as="sourcePoint" />
            <mxPoint x="180" y="370" as="targetPoint" />
          </mxGeometry>
        </mxCell>
        <mxCell id="T5yh9XAndWMEfEpCIEIo-19" value="Solicitud de Busqueda" style="edgeLabel;resizable=0;html=1;;align=center;verticalAlign=middle;fontSize=14;" connectable="0" vertex="1" parent="T5yh9XAndWMEfEpCIEIo-18">
          <mxGeometry relative="1" as="geometry">
            <mxPoint x="209" y="27" as="offset" />
          </mxGeometry>
        </mxCell>
        <mxCell id="T5yh9XAndWMEfEpCIEIo-21" value="" style="endArrow=classic;html=1;rounded=0;edgeStyle=orthogonalEdgeStyle;elbow=vertical;curved=1;strokeWidth=4;strokeColor=#FFFF00;entryX=0;entryY=1;entryDx=0;entryDy=0;entryPerimeter=0;" edge="1" parent="1" source="T5yh9XAndWMEfEpCIEIo-6" target="T5yh9XAndWMEfEpCIEIo-2">
          <mxGeometry relative="1" as="geometry">
            <mxPoint x="80" y="250" as="sourcePoint" />
            <mxPoint x="420" y="230" as="targetPoint" />
            <Array as="points">
              <mxPoint x="770" y="355" />
            </Array>
          </mxGeometry>
        </mxCell>
        <mxCell id="T5yh9XAndWMEfEpCIEIo-22" value="Resultados de&lt;div&gt;&amp;nbsp;Busqueda&lt;/div&gt;" style="edgeLabel;resizable=0;html=1;;align=center;verticalAlign=middle;fontSize=14;" connectable="0" vertex="1" parent="T5yh9XAndWMEfEpCIEIo-21">
          <mxGeometry relative="1" as="geometry">
            <mxPoint x="-90" y="-19" as="offset" />
          </mxGeometry>
        </mxCell>
        <mxCell id="T5yh9XAndWMEfEpCIEIo-23" value="" style="endArrow=classic;html=1;rounded=0;entryX=0.25;entryY=0;entryDx=0;entryDy=0;strokeColor=#3333FF;strokeWidth=4;edgeStyle=orthogonalEdgeStyle;curved=1;" edge="1" parent="1" target="T5yh9XAndWMEfEpCIEIo-6">
          <mxGeometry relative="1" as="geometry">
            <mxPoint x="-150" y="20" as="sourcePoint" />
            <mxPoint x="-170" y="290" as="targetPoint" />
          </mxGeometry>
        </mxCell>
        <mxCell id="T5yh9XAndWMEfEpCIEIo-24" value="&lt;font style=&quot;font-size: 13px;&quot;&gt;Solicitud de Busqueda&lt;/font&gt;" style="edgeLabel;resizable=0;html=1;;align=center;verticalAlign=middle;" connectable="0" vertex="1" parent="T5yh9XAndWMEfEpCIEIo-23">
          <mxGeometry relative="1" as="geometry">
            <mxPoint x="-50" y="70" as="offset" />
          </mxGeometry>
        </mxCell>
        <mxCell id="T5yh9XAndWMEfEpCIEIo-25" value="" style="endArrow=classic;html=1;rounded=0;exitX=0;exitY=0.5;exitDx=0;exitDy=0;strokeColor=#3333FF;strokeWidth=4;edgeStyle=orthogonalEdgeStyle;curved=1;" edge="1" parent="1" source="T5yh9XAndWMEfEpCIEIo-6">
          <mxGeometry relative="1" as="geometry">
            <mxPoint x="119.51999999999997" y="403.0100000000001" as="sourcePoint" />
            <mxPoint x="-270" y="110" as="targetPoint" />
          </mxGeometry>
        </mxCell>
        <mxCell id="T5yh9XAndWMEfEpCIEIo-26" value="Resultados de&amp;nbsp;&lt;div&gt;Busquedas&lt;/div&gt;" style="edgeLabel;resizable=0;html=1;;align=center;verticalAlign=middle;fontSize=13;" connectable="0" vertex="1" parent="T5yh9XAndWMEfEpCIEIo-25">
          <mxGeometry relative="1" as="geometry">
            <mxPoint x="-33" y="-105" as="offset" />
          </mxGeometry>
        </mxCell>
        <mxCell id="T5yh9XAndWMEfEpCIEIo-29" value="" style="endArrow=classic;html=1;rounded=0;exitX=1;exitY=0.25;exitDx=0;exitDy=0;edgeStyle=orthogonalEdgeStyle;curved=1;strokeWidth=4;strokeColor=#009999;" edge="1" parent="1" source="T5yh9XAndWMEfEpCIEIo-13">
          <mxGeometry relative="1" as="geometry">
            <mxPoint x="-120" y="710" as="sourcePoint" />
            <mxPoint x="-150" y="100" as="targetPoint" />
            <Array as="points">
              <mxPoint x="-150" y="873" />
            </Array>
          </mxGeometry>
        </mxCell>
        <mxCell id="T5yh9XAndWMEfEpCIEIo-30" value="Label" style="edgeLabel;resizable=0;html=1;;align=center;verticalAlign=middle;" connectable="0" vertex="1" parent="T5yh9XAndWMEfEpCIEIo-29">
          <mxGeometry relative="1" as="geometry">
            <mxPoint x="66" y="24" as="offset" />
          </mxGeometry>
        </mxCell>
        <mxCell id="T5yh9XAndWMEfEpCIEIo-31" value="" style="endArrow=classic;html=1;rounded=0;edgeStyle=orthogonalEdgeStyle;curved=1;strokeWidth=4;strokeColor=#009999;entryX=0;entryY=0.25;entryDx=0;entryDy=0;exitX=0;exitY=0.3333333333333333;exitDx=0;exitDy=0;exitPerimeter=0;" edge="1" parent="1" source="T5yh9XAndWMEfEpCIEIo-3" target="T5yh9XAndWMEfEpCIEIo-13">
          <mxGeometry relative="1" as="geometry">
            <mxPoint x="-400" y="-70" as="sourcePoint" />
            <mxPoint x="-430" y="460" as="targetPoint" />
            <Array as="points">
              <mxPoint x="-520" y="-90" />
              <mxPoint x="-520" y="873" />
            </Array>
          </mxGeometry>
        </mxCell>
        <mxCell id="T5yh9XAndWMEfEpCIEIo-32" value="Solicitus de Gestion de Bibliografia&amp;nbsp;" style="edgeLabel;resizable=0;html=1;;align=center;verticalAlign=middle;fontSize=14;" connectable="0" vertex="1" parent="T5yh9XAndWMEfEpCIEIo-31">
          <mxGeometry relative="1" as="geometry" />
        </mxCell>
        <mxCell id="T5yh9XAndWMEfEpCIEIo-34" value="&lt;div&gt;&lt;font style=&quot;vertical-align: inherit;&quot; dir=&quot;auto&quot;&gt;&lt;font style=&quot;vertical-align: inherit;&quot; dir=&quot;auto&quot;&gt;&lt;font style=&quot;vertical-align: inherit;&quot; dir=&quot;auto&quot;&gt;&lt;font style=&quot;vertical-align: inherit;&quot; dir=&quot;auto&quot;&gt;P3&lt;/font&gt;&lt;/font&gt;&lt;/font&gt;&lt;/font&gt;&lt;/div&gt;&lt;div&gt;&lt;font style=&quot;vertical-align: inherit;&quot; dir=&quot;auto&quot;&gt;&lt;font style=&quot;vertical-align: inherit;&quot; dir=&quot;auto&quot;&gt;&lt;font style=&quot;vertical-align: inherit;&quot; dir=&quot;auto&quot;&gt;&lt;font style=&quot;vertical-align: inherit;&quot; dir=&quot;auto&quot;&gt;&lt;br&gt;&lt;/font&gt;&lt;/font&gt;&lt;/font&gt;&lt;/font&gt;&lt;/div&gt;&lt;div&gt;&lt;font style=&quot;vertical-align: inherit;&quot; dir=&quot;auto&quot;&gt;&lt;font style=&quot;vertical-align: inherit;&quot; dir=&quot;auto&quot;&gt;&lt;font style=&quot;vertical-align: inherit;&quot; dir=&quot;auto&quot;&gt;&lt;font style=&quot;vertical-align: inherit;&quot; dir=&quot;auto&quot;&gt;&lt;font style=&quot;vertical-align: inherit;&quot; dir=&quot;auto&quot;&gt;&lt;font style=&quot;vertical-align: inherit;&quot; dir=&quot;auto&quot;&gt;Gesti칩n de Usuarios y Sanciones&lt;/font&gt;&lt;/font&gt;&lt;/font&gt;&lt;/font&gt;&lt;/font&gt;&lt;/font&gt;&lt;/div&gt;" style="rounded=1;whiteSpace=wrap;html=1;absoluteArcSize=1;arcSize=14;strokeWidth=2;fillColor=#0000FF;" vertex="1" parent="1">
          <mxGeometry x="900" y="710" width="120" height="130" as="geometry" />
        </mxCell>
        <mxCell id="T5yh9XAndWMEfEpCIEIo-35" value="D4&lt;div&gt;&lt;br&gt;&lt;/div&gt;&lt;div&gt;Usuarios&amp;nbsp;&lt;/div&gt;&lt;div&gt;&lt;br&gt;&lt;/div&gt;" style="strokeWidth=2;html=1;shape=mxgraph.flowchart.database;whiteSpace=wrap;" vertex="1" parent="1">
          <mxGeometry x="1210" y="990" width="120" height="70" as="geometry" />
        </mxCell>
        <mxCell id="T5yh9XAndWMEfEpCIEIo-36" value="" style="endArrow=classic;html=1;rounded=0;strokeWidth=4;strokeColor=#4C0099;exitX=1;exitY=0.25;exitDx=0;exitDy=0;edgeStyle=orthogonalEdgeStyle;curved=1;" edge="1" parent="1" source="T5yh9XAndWMEfEpCIEIo-34">
          <mxGeometry relative="1" as="geometry">
            <mxPoint x="1040" y="708" as="sourcePoint" />
            <mxPoint x="960" y="30" as="targetPoint" />
            <Array as="points">
              <mxPoint x="1170" y="743" />
              <mxPoint x="1170" y="30" />
            </Array>
          </mxGeometry>
        </mxCell>
        <mxCell id="T5yh9XAndWMEfEpCIEIo-37" value="Historial de Prestamos y&lt;div&gt;Notificacion de Sanciones&lt;/div&gt;" style="edgeLabel;resizable=0;html=1;;align=center;verticalAlign=middle;fontSize=14;" connectable="0" vertex="1" parent="T5yh9XAndWMEfEpCIEIo-36">
          <mxGeometry relative="1" as="geometry">
            <mxPoint y="10" as="offset" />
          </mxGeometry>
        </mxCell>
        <mxCell id="T5yh9XAndWMEfEpCIEIo-38" value="" style="endArrow=classic;html=1;rounded=0;entryX=0;entryY=0.25;entryDx=0;entryDy=0;edgeStyle=orthogonalEdgeStyle;elbow=vertical;curved=1;strokeWidth=4;strokeColor=#4C0099;" edge="1" parent="1" source="T5yh9XAndWMEfEpCIEIo-2" target="T5yh9XAndWMEfEpCIEIo-34">
          <mxGeometry relative="1" as="geometry">
            <mxPoint x="510" y="230" as="sourcePoint" />
            <mxPoint x="970" y="220" as="targetPoint" />
            <Array as="points">
              <mxPoint x="640" y="35" />
              <mxPoint x="640" y="743" />
            </Array>
          </mxGeometry>
        </mxCell>
        <mxCell id="T5yh9XAndWMEfEpCIEIo-39" value="Credenciales y&amp;nbsp;&lt;div&gt;Solicitud de Historial&lt;/div&gt;" style="edgeLabel;resizable=0;html=1;;align=center;verticalAlign=middle;fontSize=14;" connectable="0" vertex="1" parent="T5yh9XAndWMEfEpCIEIo-38">
          <mxGeometry relative="1" as="geometry">
            <mxPoint x="10" y="-53" as="offset" />
          </mxGeometry>
        </mxCell>
        <mxCell id="T5yh9XAndWMEfEpCIEIo-40" value="&lt;div&gt;&lt;font style=&quot;vertical-align: inherit;&quot; dir=&quot;auto&quot;&gt;&lt;font style=&quot;vertical-align: inherit;&quot; dir=&quot;auto&quot;&gt;&lt;font style=&quot;vertical-align: inherit;&quot; dir=&quot;auto&quot;&gt;&lt;font style=&quot;vertical-align: inherit;&quot; dir=&quot;auto&quot;&gt;&lt;font style=&quot;vertical-align: inherit;&quot; dir=&quot;auto&quot;&gt;&lt;font style=&quot;vertical-align: inherit;&quot; dir=&quot;auto&quot;&gt;P2&lt;/font&gt;&lt;/font&gt;&lt;/font&gt;&lt;/font&gt;&lt;/font&gt;&lt;/font&gt;&lt;/div&gt;&lt;div&gt;&lt;font style=&quot;vertical-align: inherit;&quot; dir=&quot;auto&quot;&gt;&lt;font style=&quot;vertical-align: inherit;&quot; dir=&quot;auto&quot;&gt;&lt;font style=&quot;vertical-align: inherit;&quot; dir=&quot;auto&quot;&gt;&lt;font style=&quot;vertical-align: inherit;&quot; dir=&quot;auto&quot;&gt;&lt;br&gt;&lt;/font&gt;&lt;/font&gt;&lt;/font&gt;&lt;/font&gt;&lt;/div&gt;&lt;div&gt;&lt;font style=&quot;vertical-align: inherit;&quot; dir=&quot;auto&quot;&gt;&lt;font style=&quot;vertical-align: inherit;&quot; dir=&quot;auto&quot;&gt;&lt;font style=&quot;vertical-align: inherit;&quot; dir=&quot;auto&quot;&gt;&lt;font style=&quot;vertical-align: inherit;&quot; dir=&quot;auto&quot;&gt;&lt;font style=&quot;vertical-align: inherit;&quot; dir=&quot;auto&quot;&gt;&lt;font style=&quot;vertical-align: inherit;&quot; dir=&quot;auto&quot;&gt;&lt;font style=&quot;vertical-align: inherit;&quot; dir=&quot;auto&quot;&gt;&lt;font style=&quot;vertical-align: inherit;&quot; dir=&quot;auto&quot;&gt;Gesti칩n de Prestamos y Reservas&lt;/font&gt;&lt;/font&gt;&lt;/font&gt;&lt;/font&gt;&lt;/font&gt;&lt;/font&gt;&lt;/font&gt;&lt;/font&gt;&lt;/div&gt;" style="rounded=1;whiteSpace=wrap;html=1;absoluteArcSize=1;arcSize=14;strokeWidth=2;fillColor=#FFFF00;" vertex="1" parent="1">
          <mxGeometry x="220" y="800" width="120" height="130" as="geometry" />
        </mxCell>
        <mxCell id="T5yh9XAndWMEfEpCIEIo-41" value="" style="endArrow=classic;html=1;rounded=0;entryX=0.5;entryY=0;entryDx=0;entryDy=0;strokeColor=#33FF33;strokeWidth=4;exitX=0.162;exitY=0.362;exitDx=0;exitDy=0;exitPerimeter=0;edgeStyle=orthogonalEdgeStyle;curved=1;" edge="1" parent="1" source="T5yh9XAndWMEfEpCIEIo-2" target="T5yh9XAndWMEfEpCIEIo-40">
          <mxGeometry relative="1" as="geometry">
            <mxPoint x="460" y="240" as="sourcePoint" />
            <mxPoint x="230" y="500" as="targetPoint" />
          </mxGeometry>
        </mxCell>
        <mxCell id="T5yh9XAndWMEfEpCIEIo-42" value="Solicitud de Prestamos y&amp;nbsp;&lt;div&gt;Solicitud de Reservas&lt;/div&gt;" style="edgeLabel;resizable=0;html=1;;align=center;verticalAlign=middle;fontSize=14;" connectable="0" vertex="1" parent="T5yh9XAndWMEfEpCIEIo-41">
          <mxGeometry relative="1" as="geometry">
            <mxPoint x="176" y="-8" as="offset" />
          </mxGeometry>
        </mxCell>
        <mxCell id="T5yh9XAndWMEfEpCIEIo-43" value="" style="endArrow=classic;html=1;rounded=0;exitX=1;exitY=0.25;exitDx=0;exitDy=0;edgeStyle=orthogonalEdgeStyle;curved=1;strokeColor=#33FF33;strokeWidth=4;" edge="1" parent="1" source="T5yh9XAndWMEfEpCIEIo-40" target="T5yh9XAndWMEfEpCIEIo-2">
          <mxGeometry relative="1" as="geometry">
            <mxPoint x="130" y="620" as="sourcePoint" />
            <mxPoint x="550" y="180" as="targetPoint" />
            <Array as="points">
              <mxPoint x="860" y="833" />
            </Array>
          </mxGeometry>
        </mxCell>
        <mxCell id="T5yh9XAndWMEfEpCIEIo-44" value="Notificacion de Prestamos&amp;nbsp;&lt;div&gt;y Notificacion de Reservas&lt;/div&gt;" style="edgeLabel;resizable=0;html=1;;align=center;verticalAlign=middle;fontSize=14;" connectable="0" vertex="1" parent="T5yh9XAndWMEfEpCIEIo-43">
          <mxGeometry relative="1" as="geometry">
            <mxPoint x="-80" y="-201" as="offset" />
          </mxGeometry>
        </mxCell>
        <mxCell id="T5yh9XAndWMEfEpCIEIo-45" value="" style="endArrow=classic;html=1;rounded=0;entryX=0;entryY=0.25;entryDx=0;entryDy=0;strokeColor=#CC0066;strokeWidth=4;edgeStyle=orthogonalEdgeStyle;curved=1;" edge="1" parent="1" target="T5yh9XAndWMEfEpCIEIo-40">
          <mxGeometry relative="1" as="geometry">
            <mxPoint x="-310" y="110" as="sourcePoint" />
            <mxPoint x="230" y="740" as="targetPoint" />
            <Array as="points">
              <mxPoint x="-320" y="111" />
              <mxPoint x="-320" y="833" />
            </Array>
          </mxGeometry>
        </mxCell>
        <mxCell id="T5yh9XAndWMEfEpCIEIo-46" value="Solicitud de Reserva y Prestamo" style="edgeLabel;resizable=0;html=1;;align=center;verticalAlign=middle;fontSize=14;" connectable="0" vertex="1" parent="T5yh9XAndWMEfEpCIEIo-45">
          <mxGeometry relative="1" as="geometry">
            <mxPoint y="-167" as="offset" />
          </mxGeometry>
        </mxCell>
        <mxCell id="T5yh9XAndWMEfEpCIEIo-47" value="" style="endArrow=classic;html=1;rounded=0;strokeColor=#CC0066;strokeWidth=4;edgeStyle=orthogonalEdgeStyle;curved=1;" edge="1" parent="1">
          <mxGeometry relative="1" as="geometry">
            <mxPoint x="310" y="790" as="sourcePoint" />
            <mxPoint x="-110" y="-20" as="targetPoint" />
            <Array as="points">
              <mxPoint x="340" y="790" />
              <mxPoint x="340" y="-20" />
            </Array>
          </mxGeometry>
        </mxCell>
        <mxCell id="T5yh9XAndWMEfEpCIEIo-48" value="Notificacion de Reserva&lt;div&gt;&amp;nbsp;y Prestamo&lt;/div&gt;" style="edgeLabel;resizable=0;html=1;;align=center;verticalAlign=middle;fontSize=14;" connectable="0" vertex="1" parent="T5yh9XAndWMEfEpCIEIo-47">
          <mxGeometry relative="1" as="geometry">
            <mxPoint x="-52" y="-7" as="offset" />
          </mxGeometry>
        </mxCell>
        <mxCell id="T5yh9XAndWMEfEpCIEIo-51" value="" style="endArrow=classic;html=1;rounded=0;entryX=0.5;entryY=1;entryDx=0;entryDy=0;edgeStyle=orthogonalEdgeStyle;curved=1;strokeColor=#009900;strokeWidth=4;" edge="1" parent="1" target="T5yh9XAndWMEfEpCIEIo-6">
          <mxGeometry relative="1" as="geometry">
            <mxPoint x="480" y="1370" as="sourcePoint" />
            <mxPoint x="660" y="360" as="targetPoint" />
            <Array as="points">
              <mxPoint x="400" y="1370" />
              <mxPoint x="130" y="1370" />
              <mxPoint x="130" y="480" />
              <mxPoint x="180" y="480" />
            </Array>
          </mxGeometry>
        </mxCell>
        <mxCell id="T5yh9XAndWMEfEpCIEIo-52" value="Datos de&amp;nbsp;&lt;div&gt;Nuevo Material&lt;/div&gt;" style="edgeLabel;resizable=0;html=1;;align=center;verticalAlign=middle;fontSize=14;" connectable="0" vertex="1" parent="T5yh9XAndWMEfEpCIEIo-51">
          <mxGeometry relative="1" as="geometry">
            <mxPoint x="-10" y="-300" as="offset" />
          </mxGeometry>
        </mxCell>
        <mxCell id="T5yh9XAndWMEfEpCIEIo-61" value="" style="endArrow=classic;html=1;rounded=0;exitX=0;exitY=1;exitDx=0;exitDy=0;edgeStyle=orthogonalEdgeStyle;curved=1;strokeColor=#FF00FF;strokeWidth=4;" edge="1" parent="1" source="T5yh9XAndWMEfEpCIEIo-40">
          <mxGeometry relative="1" as="geometry">
            <mxPoint x="410" y="1150" as="sourcePoint" />
            <mxPoint x="460" y="1300" as="targetPoint" />
            <Array as="points">
              <mxPoint x="220" y="1300" />
            </Array>
          </mxGeometry>
        </mxCell>
        <mxCell id="T5yh9XAndWMEfEpCIEIo-62" value="&lt;span style=&quot;font-size: 14px;&quot;&gt;Solicitud de&lt;/span&gt;&lt;div&gt;&lt;span style=&quot;font-size: 14px;&quot;&gt;&amp;nbsp;Prestamo/Reserva&lt;/span&gt;&lt;/div&gt;" style="edgeLabel;resizable=0;html=1;;align=center;verticalAlign=middle;" connectable="0" vertex="1" parent="T5yh9XAndWMEfEpCIEIo-61">
          <mxGeometry relative="1" as="geometry">
            <mxPoint x="40" y="-48" as="offset" />
          </mxGeometry>
        </mxCell>
        <mxCell id="T5yh9XAndWMEfEpCIEIo-63" value="" style="endArrow=classic;html=1;rounded=0;entryX=1;entryY=1;entryDx=0;entryDy=0;edgeStyle=orthogonalEdgeStyle;curved=1;strokeColor=#FF00FF;strokeWidth=4;" edge="1" parent="1" target="T5yh9XAndWMEfEpCIEIo-40">
          <mxGeometry relative="1" as="geometry">
            <mxPoint x="500" y="1260" as="sourcePoint" />
            <mxPoint x="510" y="1150" as="targetPoint" />
            <Array as="points">
              <mxPoint x="490" y="1261" />
              <mxPoint x="490" y="930" />
            </Array>
          </mxGeometry>
        </mxCell>
        <mxCell id="T5yh9XAndWMEfEpCIEIo-64" value="Confirmacion&amp;nbsp;&lt;div&gt;de Prestamo/Reserva&lt;/div&gt;" style="edgeLabel;resizable=0;html=1;;align=center;verticalAlign=middle;fontSize=14;" connectable="0" vertex="1" parent="T5yh9XAndWMEfEpCIEIo-63">
          <mxGeometry relative="1" as="geometry">
            <mxPoint x="-10" y="25" as="offset" />
          </mxGeometry>
        </mxCell>
        <mxCell id="T5yh9XAndWMEfEpCIEIo-68" value="" style="endArrow=classic;html=1;rounded=0;exitX=0;exitY=0.75;exitDx=0;exitDy=0;edgeStyle=orthogonalEdgeStyle;curved=1;strokeWidth=4;strokeColor=#7EA6E0;" edge="1" parent="1" source="T5yh9XAndWMEfEpCIEIo-34">
          <mxGeometry relative="1" as="geometry">
            <mxPoint x="410" y="970" as="sourcePoint" />
            <mxPoint x="630" y="1310" as="targetPoint" />
          </mxGeometry>
        </mxCell>
        <mxCell id="T5yh9XAndWMEfEpCIEIo-69" value="Propuesta de&amp;nbsp;&lt;div&gt;Sanciones&lt;/div&gt;" style="edgeLabel;resizable=0;html=1;;align=center;verticalAlign=middle;fontSize=14;" connectable="0" vertex="1" parent="T5yh9XAndWMEfEpCIEIo-68">
          <mxGeometry relative="1" as="geometry">
            <mxPoint x="42" y="66" as="offset" />
          </mxGeometry>
        </mxCell>
        <mxCell id="T5yh9XAndWMEfEpCIEIo-70" value="" style="endArrow=classic;html=1;rounded=0;entryX=0.75;entryY=1;entryDx=0;entryDy=0;edgeStyle=orthogonalEdgeStyle;curved=1;strokeWidth=4;strokeColor=#7EA6E0;" edge="1" parent="1" target="T5yh9XAndWMEfEpCIEIo-34">
          <mxGeometry relative="1" as="geometry">
            <mxPoint x="660" y="1400" as="sourcePoint" />
            <mxPoint x="510" y="1150" as="targetPoint" />
          </mxGeometry>
        </mxCell>
        <mxCell id="T5yh9XAndWMEfEpCIEIo-71" value="Confirmacion de&lt;div&gt;&amp;nbsp;Sanciones&lt;/div&gt;" style="edgeLabel;resizable=0;html=1;;align=center;verticalAlign=middle;fontSize=14;" connectable="0" vertex="1" parent="T5yh9XAndWMEfEpCIEIo-70">
          <mxGeometry relative="1" as="geometry">
            <mxPoint x="-50" y="-95" as="offset" />
          </mxGeometry>
        </mxCell>
        <mxCell id="T5yh9XAndWMEfEpCIEIo-72" value="D5&lt;div&gt;&lt;br&gt;&lt;/div&gt;&lt;div&gt;Historial de Prestamos&lt;/div&gt;&lt;div&gt;&lt;br&gt;&lt;/div&gt;" style="strokeWidth=2;html=1;shape=mxgraph.flowchart.database;whiteSpace=wrap;" vertex="1" parent="1">
          <mxGeometry x="1284" y="740" width="120" height="70" as="geometry" />
        </mxCell>
        <mxCell id="T5yh9XAndWMEfEpCIEIo-73" value="D6&lt;div&gt;&lt;br&gt;&lt;/div&gt;&lt;div&gt;Sanciones&lt;/div&gt;&lt;div&gt;&lt;br&gt;&lt;/div&gt;" style="strokeWidth=2;html=1;shape=mxgraph.flowchart.database;whiteSpace=wrap;" vertex="1" parent="1">
          <mxGeometry x="1272" y="515" width="120" height="70" as="geometry" />
        </mxCell>
        <mxCell id="T5yh9XAndWMEfEpCIEIo-75" value="" style="endArrow=classic;html=1;rounded=0;entryX=0;entryY=0;entryDx=0;entryDy=0;strokeColor=#FF0000;strokeWidth=4;edgeStyle=orthogonalEdgeStyle;curved=1;" edge="1" parent="1" target="T5yh9XAndWMEfEpCIEIo-34">
          <mxGeometry relative="1" as="geometry">
            <mxPoint x="-110" y="-70" as="sourcePoint" />
            <mxPoint x="282" y="220" as="targetPoint" />
          </mxGeometry>
        </mxCell>
        <mxCell id="T5yh9XAndWMEfEpCIEIo-76" value="Credenciales y&amp;nbsp;&lt;div&gt;Solicitud de Historial&lt;/div&gt;" style="edgeLabel;resizable=0;html=1;;align=center;verticalAlign=middle;fontSize=14;" connectable="0" vertex="1" parent="T5yh9XAndWMEfEpCIEIo-75">
          <mxGeometry relative="1" as="geometry">
            <mxPoint x="-485" y="34" as="offset" />
          </mxGeometry>
        </mxCell>
        <mxCell id="T5yh9XAndWMEfEpCIEIo-77" value="" style="endArrow=classic;html=1;rounded=0;exitX=0;exitY=0.5;exitDx=0;exitDy=0;strokeColor=#FF0000;strokeWidth=4;edgeStyle=orthogonalEdgeStyle;curved=1;" edge="1" parent="1" source="T5yh9XAndWMEfEpCIEIo-34">
          <mxGeometry relative="1" as="geometry">
            <mxPoint x="340" y="610" as="sourcePoint" />
            <mxPoint x="-390" y="20" as="targetPoint" />
          </mxGeometry>
        </mxCell>
        <mxCell id="T5yh9XAndWMEfEpCIEIo-78" value="Confirmacion de&amp;nbsp;&lt;div&gt;Gestion&amp;nbsp;&lt;span style=&quot;background-color: light-dark(#ffffff, var(--ge-dark-color, #121212)); color: light-dark(rgb(0, 0, 0), rgb(255, 255, 255));&quot;&gt;de Bibliografia&lt;/span&gt;&lt;/div&gt;" style="edgeLabel;resizable=0;html=1;;align=center;verticalAlign=middle;fontSize=14;" connectable="0" vertex="1" parent="T5yh9XAndWMEfEpCIEIo-77">
          <mxGeometry relative="1" as="geometry">
            <mxPoint x="-37" y="-367" as="offset" />
          </mxGeometry>
        </mxCell>
        <mxCell id="T5yh9XAndWMEfEpCIEIo-111" value="&lt;span&gt;Histrial de Prestamos&amp;nbsp;&lt;/span&gt;&lt;div&gt;&lt;span&gt;Y Notificacion de Sanciones&lt;/span&gt;&lt;/div&gt;" style="edgeLabel;html=1;align=center;verticalAlign=middle;resizable=0;points=[];fontSize=12;" vertex="1" connectable="0" parent="T5yh9XAndWMEfEpCIEIo-77">
          <mxGeometry x="-0.0469" y="-198" relative="1" as="geometry">
            <mxPoint x="-9" y="-1" as="offset" />
          </mxGeometry>
        </mxCell>
        <mxCell id="T5yh9XAndWMEfEpCIEIo-80" value="D3&lt;div&gt;&lt;br&gt;&lt;/div&gt;&lt;div&gt;Reservas&lt;/div&gt;&lt;div&gt;&lt;br&gt;&lt;/div&gt;" style="strokeWidth=2;html=1;shape=mxgraph.flowchart.database;whiteSpace=wrap;" vertex="1" parent="1">
          <mxGeometry x="-240" y="1300" width="120" height="70" as="geometry" />
        </mxCell>
        <mxCell id="T5yh9XAndWMEfEpCIEIo-83" value="" style="endArrow=classic;startArrow=classic;html=1;rounded=0;entryX=0.5;entryY=1;entryDx=0;entryDy=0;exitX=0.5;exitY=0;exitDx=0;exitDy=0;exitPerimeter=0;strokeWidth=3;" edge="1" parent="1" source="T5yh9XAndWMEfEpCIEIo-5" target="T5yh9XAndWMEfEpCIEIo-40">
          <mxGeometry width="50" height="50" relative="1" as="geometry">
            <mxPoint y="1230" as="sourcePoint" />
            <mxPoint x="50" y="1180" as="targetPoint" />
          </mxGeometry>
        </mxCell>
        <mxCell id="T5yh9XAndWMEfEpCIEIo-123" value="&lt;span style=&quot;font-size: 14px;&quot;&gt;Gestion de&lt;/span&gt;&lt;div&gt;&lt;span style=&quot;font-size: 14px;&quot;&gt;Prestamos&lt;/span&gt;&lt;/div&gt;" style="edgeLabel;html=1;align=center;verticalAlign=middle;resizable=0;points=[];" vertex="1" connectable="0" parent="T5yh9XAndWMEfEpCIEIo-83">
          <mxGeometry x="-0.5561" y="4" relative="1" as="geometry">
            <mxPoint x="1" y="10" as="offset" />
          </mxGeometry>
        </mxCell>
        <mxCell id="T5yh9XAndWMEfEpCIEIo-84" value="" style="endArrow=classic;startArrow=classic;html=1;rounded=0;entryX=0;entryY=0.5;entryDx=0;entryDy=0;exitX=1;exitY=0.15;exitDx=0;exitDy=0;exitPerimeter=0;strokeWidth=3;" edge="1" parent="1" source="T5yh9XAndWMEfEpCIEIo-80" target="T5yh9XAndWMEfEpCIEIo-40">
          <mxGeometry width="50" height="50" relative="1" as="geometry">
            <mxPoint x="40" y="1310" as="sourcePoint" />
            <mxPoint x="290" y="940" as="targetPoint" />
          </mxGeometry>
        </mxCell>
        <mxCell id="T5yh9XAndWMEfEpCIEIo-124" value="Gestion de&lt;div&gt;Reservas&lt;/div&gt;" style="edgeLabel;html=1;align=center;verticalAlign=middle;resizable=0;points=[];fontSize=14;" vertex="1" connectable="0" parent="T5yh9XAndWMEfEpCIEIo-84">
          <mxGeometry x="-0.5679" relative="1" as="geometry">
            <mxPoint as="offset" />
          </mxGeometry>
        </mxCell>
        <mxCell id="T5yh9XAndWMEfEpCIEIo-86" value="" style="endArrow=classic;startArrow=classic;html=1;rounded=0;entryX=0;entryY=0.75;entryDx=0;entryDy=0;exitX=1;exitY=0.15;exitDx=0;exitDy=0;exitPerimeter=0;strokeWidth=3;" edge="1" parent="1" source="T5yh9XAndWMEfEpCIEIo-88" target="T5yh9XAndWMEfEpCIEIo-6">
          <mxGeometry width="50" height="50" relative="1" as="geometry">
            <mxPoint x="-110" y="1181" as="sourcePoint" />
            <mxPoint x="230" y="875" as="targetPoint" />
          </mxGeometry>
        </mxCell>
        <mxCell id="T5yh9XAndWMEfEpCIEIo-121" value="&lt;span style=&quot;font-size: 14px;&quot;&gt;Informacion de Libros&lt;/span&gt;" style="edgeLabel;html=1;align=center;verticalAlign=middle;resizable=0;points=[];" vertex="1" connectable="0" parent="T5yh9XAndWMEfEpCIEIo-86">
          <mxGeometry x="0.2915" relative="1" as="geometry">
            <mxPoint as="offset" />
          </mxGeometry>
        </mxCell>
        <mxCell id="T5yh9XAndWMEfEpCIEIo-87" value="&lt;font style=&quot;vertical-align: inherit;&quot; dir=&quot;auto&quot;&gt;&lt;font style=&quot;vertical-align: inherit;&quot; dir=&quot;auto&quot;&gt;D7&lt;/font&gt;&lt;/font&gt;&lt;div&gt;&lt;font style=&quot;vertical-align: inherit;&quot; dir=&quot;auto&quot;&gt;&lt;font style=&quot;vertical-align: inherit;&quot; dir=&quot;auto&quot;&gt;&lt;br&gt;&lt;/font&gt;&lt;/font&gt;&lt;/div&gt;&lt;div&gt;&lt;font style=&quot;vertical-align: inherit;&quot; dir=&quot;auto&quot;&gt;&lt;font style=&quot;vertical-align: inherit;&quot; dir=&quot;auto&quot;&gt;Bibliografia para Cursos&lt;/font&gt;&lt;/font&gt;&lt;/div&gt;" style="strokeWidth=2;html=1;shape=mxgraph.flowchart.database;whiteSpace=wrap;" vertex="1" parent="1">
          <mxGeometry x="-750" y="1090" width="120" height="70" as="geometry" />
        </mxCell>
        <mxCell id="T5yh9XAndWMEfEpCIEIo-88" value="&lt;font style=&quot;vertical-align: inherit;&quot; dir=&quot;auto&quot;&gt;&lt;font style=&quot;vertical-align: inherit;&quot; dir=&quot;auto&quot;&gt;D1&lt;/font&gt;&lt;/font&gt;&lt;div&gt;&lt;font style=&quot;vertical-align: inherit;&quot; dir=&quot;auto&quot;&gt;&lt;font style=&quot;vertical-align: inherit;&quot; dir=&quot;auto&quot;&gt;&lt;br&gt;&lt;/font&gt;&lt;/font&gt;&lt;/div&gt;&lt;div&gt;Catalogo de Libros&lt;/div&gt;" style="strokeWidth=2;html=1;shape=mxgraph.flowchart.database;whiteSpace=wrap;" vertex="1" parent="1">
          <mxGeometry x="-500" y="1200" width="147" height="120" as="geometry" />
        </mxCell>
        <mxCell id="T5yh9XAndWMEfEpCIEIo-90" value="" style="endArrow=classic;startArrow=classic;html=1;rounded=0;exitX=1;exitY=0.85;exitDx=0;exitDy=0;exitPerimeter=0;strokeWidth=3;entryX=0;entryY=1;entryDx=0;entryDy=0;" edge="1" parent="1" source="T5yh9XAndWMEfEpCIEIo-88" target="T5yh9XAndWMEfEpCIEIo-40">
          <mxGeometry width="50" height="50" relative="1" as="geometry">
            <mxPoint y="870" as="sourcePoint" />
            <mxPoint x="240" y="940" as="targetPoint" />
          </mxGeometry>
        </mxCell>
        <mxCell id="T5yh9XAndWMEfEpCIEIo-122" value="&lt;span style=&quot;font-size: 14px;&quot;&gt;Informacion de Libros y&lt;/span&gt;&lt;div&gt;&lt;span style=&quot;font-size: 14px;&quot;&gt;Actualizacion de Catalogo&lt;/span&gt;&lt;/div&gt;" style="edgeLabel;html=1;align=center;verticalAlign=middle;resizable=0;points=[];" vertex="1" connectable="0" parent="T5yh9XAndWMEfEpCIEIo-90">
          <mxGeometry x="-0.0393" y="-1" relative="1" as="geometry">
            <mxPoint x="-19" y="1" as="offset" />
          </mxGeometry>
        </mxCell>
        <mxCell id="T5yh9XAndWMEfEpCIEIo-91" value="" style="endArrow=classic;startArrow=classic;html=1;rounded=0;exitX=0.5;exitY=0;exitDx=0;exitDy=0;exitPerimeter=0;entryX=0.5;entryY=1;entryDx=0;entryDy=0;strokeWidth=3;" edge="1" parent="1" source="T5yh9XAndWMEfEpCIEIo-88" target="T5yh9XAndWMEfEpCIEIo-13">
          <mxGeometry width="50" height="50" relative="1" as="geometry">
            <mxPoint y="870" as="sourcePoint" />
            <mxPoint x="50" y="820" as="targetPoint" />
          </mxGeometry>
        </mxCell>
        <mxCell id="T5yh9XAndWMEfEpCIEIo-125" value="&lt;span style=&quot;font-size: 14px;&quot;&gt;Consulta de Libros&lt;/span&gt;&lt;div&gt;&lt;span style=&quot;font-size: 14px;&quot;&gt;para Bibliografia&lt;/span&gt;&lt;/div&gt;" style="edgeLabel;html=1;align=center;verticalAlign=middle;resizable=0;points=[];" vertex="1" connectable="0" parent="T5yh9XAndWMEfEpCIEIo-91">
          <mxGeometry x="0.1924" y="5" relative="1" as="geometry">
            <mxPoint as="offset" />
          </mxGeometry>
        </mxCell>
        <mxCell id="T5yh9XAndWMEfEpCIEIo-92" value="" style="endArrow=classic;startArrow=classic;html=1;rounded=0;exitX=0.5;exitY=0;exitDx=0;exitDy=0;exitPerimeter=0;entryX=0;entryY=0.75;entryDx=0;entryDy=0;strokeWidth=3;" edge="1" parent="1" source="T5yh9XAndWMEfEpCIEIo-87" target="T5yh9XAndWMEfEpCIEIo-13">
          <mxGeometry width="50" height="50" relative="1" as="geometry">
            <mxPoint x="-403" y="1210" as="sourcePoint" />
            <mxPoint x="-330" y="980" as="targetPoint" />
          </mxGeometry>
        </mxCell>
        <mxCell id="T5yh9XAndWMEfEpCIEIo-127" value="&lt;span style=&quot;font-size: 14px;&quot;&gt;Bibliografia&amp;nbsp;&lt;/span&gt;&lt;div&gt;&lt;span style=&quot;font-size: 14px;&quot;&gt;de Cursos&lt;/span&gt;&lt;/div&gt;" style="edgeLabel;html=1;align=center;verticalAlign=middle;resizable=0;points=[];" vertex="1" connectable="0" parent="T5yh9XAndWMEfEpCIEIo-92">
          <mxGeometry x="0.0301" y="1" relative="1" as="geometry">
            <mxPoint y="1" as="offset" />
          </mxGeometry>
        </mxCell>
        <mxCell id="T5yh9XAndWMEfEpCIEIo-115" value="" style="endArrow=classic;startArrow=classic;html=1;rounded=0;entryX=0.977;entryY=0.92;entryDx=0;entryDy=0;entryPerimeter=0;exitX=0.424;exitY=0.029;exitDx=0;exitDy=0;exitPerimeter=0;strokeWidth=3;" edge="1" parent="1" source="T5yh9XAndWMEfEpCIEIo-35" target="T5yh9XAndWMEfEpCIEIo-34">
          <mxGeometry width="50" height="50" relative="1" as="geometry">
            <mxPoint x="1236" y="938" as="sourcePoint" />
            <mxPoint x="1286" y="888" as="targetPoint" />
          </mxGeometry>
        </mxCell>
        <mxCell id="T5yh9XAndWMEfEpCIEIo-120" value="&lt;span style=&quot;font-size: 14px;&quot;&gt;Informacion&amp;nbsp;&lt;/span&gt;&lt;span style=&quot;font-size: 14px; background-color: light-dark(#ffffff, var(--ge-dark-color, #121212)); color: light-dark(rgb(0, 0, 0), rgb(255, 255, 255));&quot;&gt;de Usuarios y&lt;/span&gt;&lt;div&gt;&lt;span style=&quot;font-size: 14px; background-color: light-dark(#ffffff, var(--ge-dark-color, #121212)); color: light-dark(rgb(0, 0, 0), rgb(255, 255, 255));&quot;&gt;&amp;nbsp;Actualizacion de usuario&lt;/span&gt;&lt;/div&gt;" style="edgeLabel;html=1;align=center;verticalAlign=middle;resizable=0;points=[];" vertex="1" connectable="0" parent="T5yh9XAndWMEfEpCIEIo-115">
          <mxGeometry x="0.033" y="2" relative="1" as="geometry">
            <mxPoint y="-1" as="offset" />
          </mxGeometry>
        </mxCell>
        <mxCell id="T5yh9XAndWMEfEpCIEIo-116" value="" style="endArrow=classic;startArrow=classic;html=1;rounded=0;entryX=1;entryY=0.75;entryDx=0;entryDy=0;exitX=0;exitY=0.5;exitDx=0;exitDy=0;exitPerimeter=0;strokeWidth=3;" edge="1" parent="1" source="T5yh9XAndWMEfEpCIEIo-72" target="T5yh9XAndWMEfEpCIEIo-34">
          <mxGeometry width="50" height="50" relative="1" as="geometry">
            <mxPoint x="1273" y="1004" as="sourcePoint" />
            <mxPoint x="1029" y="842" as="targetPoint" />
            <Array as="points" />
          </mxGeometry>
        </mxCell>
        <mxCell id="T5yh9XAndWMEfEpCIEIo-119" value="&lt;span style=&quot;font-size: 14px;&quot;&gt;Informacion de Historial&amp;nbsp;&lt;/span&gt;&lt;span style=&quot;color: light-dark(rgb(0, 0, 0), rgb(255, 255, 255)); background-color: light-dark(#ffffff, var(--ge-dark-color, #121212)); font-size: 14px;&quot;&gt;de&lt;/span&gt;&lt;div&gt;&lt;span style=&quot;color: light-dark(rgb(0, 0, 0), rgb(255, 255, 255)); font-size: 14px; background-color: light-dark(#ffffff, var(--ge-dark-color, #121212));&quot;&gt;Prestamos y Actualizacion&lt;/span&gt;&lt;/div&gt;&lt;div&gt;&lt;span style=&quot;background-color: light-dark(#ffffff, var(--ge-dark-color, #121212)); color: light-dark(rgb(0, 0, 0), rgb(255, 255, 255)); font-size: 14px;&quot;&gt;de Historial de Prestamos&lt;/span&gt;&lt;/div&gt;" style="edgeLabel;html=1;align=center;verticalAlign=middle;resizable=0;points=[];" vertex="1" connectable="0" parent="T5yh9XAndWMEfEpCIEIo-116">
          <mxGeometry x="-0.0913" y="-5" relative="1" as="geometry">
            <mxPoint x="-11" as="offset" />
          </mxGeometry>
        </mxCell>
        <mxCell id="T5yh9XAndWMEfEpCIEIo-117" value="" style="endArrow=classic;startArrow=classic;html=1;rounded=0;entryX=1;entryY=0.5;entryDx=0;entryDy=0;exitX=0.5;exitY=1;exitDx=0;exitDy=0;exitPerimeter=0;strokeWidth=3;" edge="1" parent="1" source="T5yh9XAndWMEfEpCIEIo-73" target="T5yh9XAndWMEfEpCIEIo-34">
          <mxGeometry width="50" height="50" relative="1" as="geometry">
            <mxPoint x="1296" y="787" as="sourcePoint" />
            <mxPoint x="1032" y="820" as="targetPoint" />
            <Array as="points" />
          </mxGeometry>
        </mxCell>
        <mxCell id="T5yh9XAndWMEfEpCIEIo-118" value="&lt;span style=&quot;font-size: 14px;&quot;&gt;Geston de&amp;nbsp;&lt;/span&gt;&lt;div&gt;&lt;span style=&quot;font-size: 14px;&quot;&gt;Sanciones&lt;/span&gt;&lt;/div&gt;" style="edgeLabel;html=1;align=center;verticalAlign=middle;resizable=0;points=[];" vertex="1" connectable="0" parent="T5yh9XAndWMEfEpCIEIo-117">
          <mxGeometry x="-0.1691" y="2" relative="1" as="geometry">
            <mxPoint as="offset" />
          </mxGeometry>
        </mxCell>
      </root>
    </mxGraphModel>
  </diagram>
</mxfile>
